<svg width="47" height="45" viewBox="0 0 47 45" fill="none" xmlns="http://www.w3.org/2000/svg">
<g filter="url(#filter0_d_6_69)">
<path d="M22.5476 22.7259C19.8838 21.2796 18.1286 20.2132 17.5714 18.8602C17.3023 18.2067 17.6263 17.5037 17.8734 16.9138C18.3625 15.7467 20.1722 15.0253 21.6459 14.7358C23.615 14.349 25.5523 15.6272 26.6445 16.5814C27.6683 17.476 27.5433 19.0575 27.5444 20.2996C27.5449 20.8632 26.938 21.6526 26.252 22.4913C25.8681 22.8769 25.4116 22.9925 24.5757 23.0308C24.0797 23.0314 23.4378 22.9937 22.7764 22.9547" stroke="#4B4646" stroke-width="4" stroke-linecap="round"/>
<path d="M11.1416 10.4979C11.0983 10.3245 11.0549 10.1512 11.7694 8.93502C12.4838 7.71887 13.9574 5.4652 15.1065 4.15253C16.7643 2.25894 18.3596 2.13723 19.5377 2.02757C20.9698 1.89426 22.2996 2.26594 23.3043 2.68029C24.291 3.08721 24.8856 3.84062 25.2573 4.45197C25.9238 5.54837 25.8496 6.90198 26.1766 7.71296C26.3476 8.137 27.725 7.21718 29.7744 6.80151C32.5544 6.23769 34.5596 6.60123 35.3226 6.79692C36.4301 7.08095 37.4476 7.82394 38.2126 8.58764C39.6227 9.99539 39.0288 12.4127 38.7235 13.6019C38.4674 14.5991 37.6301 15.5279 37.0404 16.2496C36.2632 17.2008 35.0048 16.9332 34.4565 16.9549C33.6068 16.9884 37.9598 18.5433 39.5935 19.9926C40.2216 20.5497 40.1662 21.4392 40.0795 22.4623C39.922 24.3204 39.4675 26.0332 39.1181 27.0819C38.8202 27.9761 38.3301 28.7492 37.7194 29.4269C37.1105 30.1025 35.5787 30.1531 34.0697 30.2411C32.5231 30.3313 31.6321 28.7137 30.9131 28.9455C30.1439 29.1935 29.804 31.3877 28.5156 32.6281C27.2272 33.8686 25.3203 34.5186 24.1646 34.8535C22.6861 35.282 21.1781 34.7117 19.384 33.9027C18.4899 33.4995 18.4082 31.5715 18.3656 29.0762C18.351 28.2236 18.0628 28.2278 17.0844 28.3795C14.3669 28.8008 11.9362 29.1038 10.7778 28.9731C9.90119 28.8742 9.39224 28.4484 9.0429 27.8824C7.94908 26.1101 8.42826 24.2957 8.949 22.9797C9.79315 20.8465 11.4016 20.7865 11.6439 20.5901C12.3798 19.9939 8.27329 19.2184 6.63491 18.3798C5.51532 17.8068 6.15095 15.0551 6.47731 14.0045C6.70018 13.287 7.72038 12.4298 8.79205 11.5328C10.0423 11.0232 11.1836 11.1099 11.5763 11.2629C11.7956 11.3292 12.0557 11.3726 12.5863 11.6799" stroke="#4B4646" stroke-width="4" stroke-linecap="round"/>
</g>
<defs>
<filter id="filter0_d_6_69" x="0" y="0" width="46.1314" height="44.9984" filterUnits="userSpaceOnUse" color-interpolation-filters="sRGB">
<feFlood flood-opacity="0" result="BackgroundImageFix"/>
<feColorMatrix in="SourceAlpha" type="matrix" values="0 0 0 0 0 0 0 0 0 0 0 0 0 0 0 0 0 0 127 0" result="hardAlpha"/>
<feOffset dy="4"/>
<feGaussianBlur stdDeviation="2"/>
<feComposite in2="hardAlpha" operator="out"/>
<feColorMatrix type="matrix" values="0 0 0 0 0 0 0 0 0 0 0 0 0 0 0 0 0 0 0.25 0"/>
<feBlend mode="normal" in2="BackgroundImageFix" result="effect1_dropShadow_6_69"/>
<feBlend mode="normal" in="SourceGraphic" in2="effect1_dropShadow_6_69" result="shape"/>
</filter>
</defs>
</svg>
